<svg preserveAspectRatio="none" width="100%" height="100%" overflow="visible" style="display: block;" viewBox="0 0 96 96" fill="none" xmlns="http://www.w3.org/2000/svg">
<g id="Img - Trouble logging in?">
<path id="Vector" d="M48 95C73.9574 95 95 73.9574 95 48C95 22.0426 73.9574 1 48 1C22.0426 1 1 22.0426 1 48C1 73.9574 22.0426 95 48 95Z" stroke="var(--stroke-0, black)" stroke-width="2" stroke-linecap="round" stroke-linejoin="round"/>
<path id="Vector_2" d="M37.999 39.996V32.998C37.999 30.3458 39.0526 27.8023 40.9279 25.9269C42.8033 24.0516 45.3468 22.998 47.999 22.998C50.6512 22.998 53.1947 24.0516 55.0701 25.9269C56.9454 27.8023 57.999 30.3458 57.999 32.998V39.996M60.931 70.001H35.065C34.4037 70.0052 33.748 69.8791 33.1354 69.6299C32.5227 69.3807 31.9652 69.0133 31.4946 68.5486C31.024 68.084 30.6495 67.5312 30.3926 66.9218C30.1356 66.3124 30.0012 65.6583 29.997 64.997V46.005C30.0011 45.3436 30.1354 44.6894 30.3923 44.0799C30.6492 43.4704 31.0236 42.9175 31.4943 42.4527C31.9649 41.9879 32.5224 41.6204 33.1351 41.3712C33.7478 41.1219 34.4036 40.9958 35.065 41H60.93C61.5912 40.9959 62.2467 41.1221 62.8592 41.3714C63.4716 41.6206 64.029 41.9881 64.4994 42.4528C64.9698 42.9174 65.3441 43.4702 65.6009 44.0795C65.8577 44.6889 65.9919 45.3428 65.996 46.004V64.996C65.9919 65.6572 65.8577 66.3111 65.6009 66.9205C65.3441 67.5298 64.9698 68.0826 64.4994 68.5472C64.029 69.0119 63.4716 69.3794 62.8592 69.6286C62.2467 69.8779 61.5912 70.0041 60.93 70L60.931 70.001Z" stroke="var(--stroke-0, black)" stroke-width="2" stroke-linecap="round" stroke-linejoin="round"/>
</g>
</svg>
