<svg width="24" height="24" viewBox="0 0 24 24" fill="currentColor" xmlns="http://www.w3.org/2000/svg">
<path fill-rule="evenodd" clip-rule="evenodd" d="M2 12V8.552c0-2.849.698-4.005 1.606-4.945C4.546 2.7 5.704 2 8.552 2h6.896c2.848 0 4.006.7 4.946 1.607.908.94 1.606 2.096 1.606 4.945v6.898c0 2.85-.698 4.005-1.606 4.944-.94.908-2.098 1.608-4.946 1.608H8.552c-2.848 0-4.006-.7-4.946-1.608C2.698 19.455 2 18.299 2 15.45V12Zm15.455.002a1 1 0 0 0-1-1h-3.45v-3.45a1 1 0 1 0-2 0v3.45h-3.45a1 1 0 1 0 0 2h3.45v3.45a1 1 0 1 0 2 0v-3.45h3.45a1 1 0 0 0 1-1Z"/>
</svg>
