<svg width="24" height="24" viewBox="0 0 24 24" fill="currentColor" xmlns="http://www.w3.org/2000/svg">
<path fill-rule="evenodd" clip-rule="evenodd" d="M12.003 2.001a9.705 9.705 0 1 1 0 19.4 10.876 10.876 0 0 1-2.895-.384.798.798 0 0 0-.533.04l-1.984.876a.801.801 0 0 1-1.123-.708l-.054-1.78a.806.806 0 0 0-.27-.569 9.49 9.49 0 0 1-3.14-7.175 9.65 9.65 0 0 1 10.003-9.7Zm-3.847 12.78 2.937-2.787 2.45 1.81a.629.629 0 0 0 .91-.167l3.135-4.992a.626.626 0 0 0-.91-.835l-2.937 2.788-2.45-1.81a.629.629 0 0 0-.91.166l-3.135 4.993a.626.626 0 0 0 .91.834Z"/>
</svg>
